<svg xmlns="http://www.w3.org/2000/svg" viewBox="0 0 512 512" width="512" height="512">
  <defs>
    <linearGradient id="grad1" x1="0%" y1="0%" x2="100%" y2="100%">
      <stop offset="0%" style="stop-color:#3B82F6;stop-opacity:1" />
      <stop offset="100%" style="stop-color:#8B5CF6;stop-opacity:1" />
    </linearGradient>
  </defs>
  
  <!-- Background Circle -->
  <circle cx="256" cy="256" r="240" fill="url(#grad1)" />
  
  <!-- Eye Symbol -->
  <g fill="white">
    <!-- Eye Outline -->
    <path d="M256 128c-81.9 0-145.7 48.8-184 128 40.3 79.2 102.1 128 184 128 81.9 0 143.7-48.8 184-128-40.3-79.2-102.1-128-184-128zm0 213.3c-47.1 0-85.3-38.2-85.3-85.3s38.2-85.3 85.3-85.3 85.3 38.2 85.3 85.3-38.2 85.3-85.3 85.3z"/>
    
    <!-- Eye Pupil -->
    <circle cx="256" cy="256" r="40" fill="white"/>
  </g>
  
  <!-- AI Indicator -->
  <g transform="translate(350, 350)">
    <circle cx="0" cy="0" r="60" fill="#10B981" stroke="white" stroke-width="8"/>
    <text x="0" y="10" text-anchor="middle" fill="white" font-size="48" font-weight="bold" font-family="Arial, sans-serif">AI</text>
  </g>
</svg>